<svg width="1200" height="800" viewBox="0 0 1200 800" xmlns="http://www.w3.org/2000/svg">
  <defs>
    <linearGradient id="panelBg" x1="0" y1="0" x2="1" y2="1">
      <stop offset="0" stop-color="#FFFFFF"/>
      <stop offset="1" stop-color="#F8FAFC"/>
    </linearGradient>
  </defs>
  <rect width="1200" height="800" rx="24" fill="url(#panelBg)"/>
  <!-- Header -->
  <rect x="0" y="0" width="1200" height="88" fill="#F3F4F6"/>
  <rect x="24" y="24" width="320" height="40" rx="8" fill="#E5E7EB"/>
  <rect x="360" y="24" width="640" height="40" rx="8" fill="#FFFFFF"/>

  <!-- Knowledge panel container (right column) -->
  <rect x="720" y="128" width="400" height="560" rx="18" fill="#FFFFFF" stroke="#E5E7EB"/>
  <rect x="740" y="148" width="360" height="200" rx="14" fill="#CBD5E1"/>
  <rect x="740" y="360" width="220" height="28" rx="8" fill="#0A0A0A"/>
  <rect x="740" y="396" width="300" height="14" rx="6" fill="#4B5563"/>
  <rect x="740" y="418" width="260" height="14" rx="6" fill="#6B7280"/>

  <rect x="740" y="452" width="340" height="16" rx="6" fill="#9CA3AF"/>
  <rect x="740" y="476" width="320" height="16" rx="6" fill="#9CA3AF"/>
  <rect x="740" y="500" width="300" height="16" rx="6" fill="#9CA3AF"/>

  <!-- Pill buttons -->
  <rect x="740" y="534" width="120" height="32" rx="16" fill="#FF6B35"/>
  <rect x="868" y="534" width="120" height="32" rx="16" fill="#111827"/>
  <rect x="996" y="534" width="104" height="32" rx="16" fill="#6B7280"/>

  <!-- Left content (results) -->
  <rect x="80" y="128" width="600" height="80" rx="12" fill="#FFFFFF" stroke="#E5E7EB"/>
  <rect x="100" y="148" width="120" height="40" rx="8" fill="#E5E7EB"/>
  <rect x="232" y="148" width="200" height="16" rx="6" fill="#0A0A0A"/>
  <rect x="232" y="172" width="360" height="14" rx="6" fill="#6B7280"/>

  <rect x="80" y="224" width="600" height="80" rx="12" fill="#FFFFFF" stroke="#E5E7EB"/>
  <rect x="100" y="244" width="120" height="40" rx="8" fill="#E5E7EB"/>
  <rect x="232" y="244" width="200" height="16" rx="6" fill="#0A0A0A"/>
  <rect x="232" y="268" width="360" height="14" rx="6" fill="#6B7280"/>

  <rect x="80" y="320" width="600" height="80" rx="12" fill="#FFFFFF" stroke="#E5E7EB"/>
  <rect x="100" y="340" width="120" height="40" rx="8" fill="#E5E7EB"/>
  <rect x="232" y="340" width="200" height="16" rx="6" fill="#0A0A0A"/>
  <rect x="232" y="364" width="360" height="14" rx="6" fill="#6B7280"/>
</svg>