<svg xmlns="http://www.w3.org/2000/svg" width="1440" height="1024" viewBox="0 0 1440 1024" fill="none">
  <rect width="1440" height="1024" rx="24" fill="#ffffff"/>
  <rect x="0" y="0" width="1440" height="56" fill="#F2F4F7"/>
  <circle cx="24" cy="28" r="6" fill="#FF6B35"/>
  <circle cx="44" cy="28" r="6" fill="#F59E0B"/>
  <circle cx="64" cy="28" r="6" fill="#10B981"/>
  <rect x="96" y="16" width="340" height="24" rx="8" fill="#E5E7EB"/>
  <rect x="24" y="88" width="480" height="40" rx="8" fill="#0A0A0A"/>
  <rect x="24" y="144" width="880" height="20" rx="6" fill="#1F2937" opacity="0.9"/>
  <rect x="24" y="176" width="640" height="18" rx="6" fill="#4B5563"/>
  <rect x="24" y="210" width="540" height="18" rx="6" fill="#6B7280"/>
  <rect x="24" y="256" width="880" height="320" rx="12" fill="#E5E7EB"/>
  <rect x="936" y="88" width="480" height="488" rx="16" fill="#F9FAFB" stroke="#E5E7EB"/>
  <rect x="960" y="112" width="200" height="16" rx="6" fill="#111827"/>
  <rect x="960" y="144" width="420" height="14" rx="6" fill="#6B7280"/>
  <rect x="960" y="176" width="420" height="14" rx="6" fill="#9CA3AF"/>
  <rect x="960" y="214" width="420" height="240" rx="12" fill="#E5E7EB"/>
  <rect x="24" y="600" width="420" height="14" rx="6" fill="#111827"/>
  <rect x="24" y="630" width="760" height="12" rx="6" fill="#6B7280"/>
  <rect x="24" y="656" width="720" height="12" rx="6" fill="#9CA3AF"/>
  <rect x="24" y="688" width="880" height="180" rx="12" fill="#F3F4F6"/>
  <rect x="24" y="888" width="280" height="40" rx="8" fill="#FF6B35"/>
  <rect x="320" y="888" width="180" height="40" rx="8" fill="#111827"/>
  <text x="40" y="113" font-family="Inter, Arial" font-size="22" fill="#ffffff">ProtectMyBrand — Premium SaaS Landing</text>
  <text x="40" y="612" font-family="Inter, Arial" font-size="16" fill="#111827">Trusted by leaders worldwide</text>
  <text x="40" y="914" font-family="Inter, Arial" font-size="16" fill="#ffffff">Get Your Free Assessment</text>
</svg>
